<?xml version="1.0" encoding="UTF-8" standalone="no"?> <svg width="512" height="512" viewBox="0 0 512 512" fill="none" xmlns="http://www.w3.org/2000/svg">
<path d="M432 416V496H120C109.391 496 99.2172 491.786 91.7157 484.284C84.2143 476.783 80 466.609 80 456C80 445.391 84.2143 435.217 91.7157 427.716C99.2172 420.214 109.391 416 120 416H432Z" fill="#57A4FF"/>
<path d="M136 16V416H120C109.391 416 99.2172 420.214 91.7157 427.716C84.2143 435.217 80 445.391 80 456V56C80 45.3913 84.2143 35.2172 91.7157 27.7157C99.2172 20.2143 109.391 16 120 16H136Z" fill="#57A4FF"/>
<path d="M320 128H344V160H320V184H288V160H264V128H288V104H320V128Z" fill="#57A4FF"/>
<path d="M336 384H400V336H336V384ZM400 144C400 125.013 394.37 106.452 383.821 90.6653C373.272 74.8782 358.279 62.5736 340.738 55.3076C323.196 48.0416 303.894 46.1405 285.271 49.8447C266.649 53.5488 249.544 62.692 236.118 76.1178C222.692 89.5436 213.549 106.649 209.845 125.271C206.14 143.894 208.042 163.196 215.308 180.738C222.574 198.279 234.878 213.273 250.665 223.821C266.452 234.37 285.013 240 304 240C329.461 240 353.879 229.886 371.882 211.882C389.886 193.879 400 169.461 400 144V144ZM304 216C289.76 216 275.839 211.777 263.999 203.866C252.159 195.954 242.93 184.71 237.481 171.553C232.031 158.397 230.605 143.92 233.383 129.954C236.162 115.987 243.019 103.158 253.088 93.0884C263.158 83.019 275.987 76.1616 289.954 73.3835C303.92 70.6054 318.397 72.0312 331.553 77.4807C344.71 82.9302 355.954 92.1586 363.866 103.999C371.777 115.839 376 129.76 376 144C375.998 163.095 368.412 181.408 354.91 194.91C341.408 208.412 323.095 215.998 304 216Z" fill="#57A4FF"/>
<path d="M400 336H336V384H400V336Z" fill="#57A4FF"/>
<path d="M320 128H344V160H320V184H288V160H264V128H288V104H320V128Z" fill="#57A4FF"/>
<path d="M304 48C285.013 48 266.452 53.6303 250.665 64.1789C234.878 74.7275 222.574 89.7207 215.308 107.262C208.042 124.804 206.14 144.106 209.845 162.729C213.549 181.351 222.692 198.456 236.118 211.882C249.544 225.308 266.649 234.451 285.271 238.155C303.894 241.86 323.196 239.958 340.738 232.692C358.279 225.426 373.272 213.122 383.821 197.335C394.37 181.548 400 162.987 400 144C400 118.539 389.886 94.1212 371.882 76.1178C353.879 58.1143 329.461 48 304 48V48ZM304 216C289.76 216 275.839 211.777 263.999 203.866C252.159 195.954 242.93 184.709 237.481 171.553C232.031 158.397 230.605 143.92 233.383 129.953C236.162 115.987 243.019 103.158 253.088 93.0883C263.158 83.0189 275.987 76.1616 289.954 73.3835C303.92 70.6053 318.397 72.0312 331.553 77.4807C344.71 82.9302 355.954 92.1586 363.866 103.999C371.777 115.839 376 129.76 376 144C375.998 163.095 368.412 181.408 354.91 194.91C341.408 208.412 323.095 215.998 304 216Z" fill="#57A4FF"/>
<path d="M344 128V160H320V184H288V160H264V128H288V104H320V128H344Z" fill="#57A4FF"/>
<path d="M344 128V160H320V184H288V160H264V128H288V104H320V128H344Z" fill="#57A4FF"/>
<path d="M432 8H120C107.274 8.0135 95.0726 13.075 86.0738 22.0738C77.075 31.0726 72.0135 43.2738 72 56V456C72.0135 468.726 77.075 480.927 86.0738 489.926C95.0726 498.925 107.274 503.986 120 504H432C434.122 504 436.157 503.157 437.657 501.657C439.157 500.157 440 498.122 440 496V16C440 13.8783 439.157 11.8434 437.657 10.3431C436.157 8.84285 434.122 8 432 8ZM88 56C88.0095 47.516 91.384 39.3822 97.3831 33.3831C103.382 27.384 111.516 24.0095 120 24H128V408H120C108.185 407.991 96.7848 412.359 88 420.26V56ZM424 488H120C111.513 488 103.374 484.629 97.3726 478.627C91.3714 472.626 88 464.487 88 456C88 447.513 91.3714 439.374 97.3726 433.373C103.374 427.371 111.513 424 120 424H424V488ZM424 408H144V24H424V408Z" fill="#004FAC"/>
<path d="M360 448H136C133.878 448 131.843 448.843 130.343 450.343C128.843 451.843 128 453.878 128 456C128 458.122 128.843 460.157 130.343 461.657C131.843 463.157 133.878 464 136 464H360C362.122 464 364.157 463.157 365.657 461.657C367.157 460.157 368 458.122 368 456C368 453.878 367.157 451.843 365.657 450.343C364.157 448.843 362.122 448 360 448Z" fill="#004FAC"/>
<path d="M400 448H384C381.878 448 379.843 448.843 378.343 450.343C376.843 451.843 376 453.878 376 456C376 458.122 376.843 460.157 378.343 461.657C379.843 463.157 381.878 464 384 464H400C402.122 464 404.157 463.157 405.657 461.657C407.157 460.157 408 458.122 408 456C408 453.878 407.157 451.843 405.657 450.343C404.157 448.843 402.122 448 400 448Z" fill="#004FAC"/>
<path d="M400 328H336C333.878 328 331.843 328.843 330.343 330.343C328.843 331.843 328 333.878 328 336V384C328 386.122 328.843 388.157 330.343 389.657C331.843 391.157 333.878 392 336 392H400C402.122 392 404.157 391.157 405.657 389.657C407.157 388.157 408 386.122 408 384V336C408 333.878 407.157 331.843 405.657 330.343C404.157 328.843 402.122 328 400 328ZM392 376H344V344H392V376Z" fill="#004FAC"/>
<path d="M312 328H216C213.878 328 211.843 328.843 210.343 330.343C208.843 331.843 208 333.878 208 336C208 338.122 208.843 340.157 210.343 341.657C211.843 343.157 213.878 344 216 344H312C314.122 344 316.157 343.157 317.657 341.657C319.157 340.157 320 338.122 320 336C320 333.878 319.157 331.843 317.657 330.343C316.157 328.843 314.122 328 312 328Z" fill="#004FAC"/>
<path d="M312 352H216C213.878 352 211.843 352.843 210.343 354.343C208.843 355.843 208 357.878 208 360C208 362.122 208.843 364.157 210.343 365.657C211.843 367.157 213.878 368 216 368H312C314.122 368 316.157 367.157 317.657 365.657C319.157 364.157 320 362.122 320 360C320 357.878 319.157 355.843 317.657 354.343C316.157 352.843 314.122 352 312 352Z" fill="#004FAC"/>
<path d="M312 376H264C261.878 376 259.843 376.843 258.343 378.343C256.843 379.843 256 381.878 256 384C256 386.122 256.843 388.157 258.343 389.657C259.843 391.157 261.878 392 264 392H312C314.122 392 316.157 391.157 317.657 389.657C319.157 388.157 320 386.122 320 384C320 381.878 319.157 379.843 317.657 378.343C316.157 376.843 314.122 376 312 376Z" fill="#004FAC"/>
<path d="M264 168H280V184C280 186.122 280.843 188.157 282.343 189.657C283.843 191.157 285.878 192 288 192H320C322.122 192 324.157 191.157 325.657 189.657C327.157 188.157 328 186.122 328 184V168H344C346.122 168 348.157 167.157 349.657 165.657C351.157 164.157 352 162.122 352 160V128C352 125.878 351.157 123.843 349.657 122.343C348.157 120.843 346.122 120 344 120H328V104C328 101.878 327.157 99.8434 325.657 98.3431C324.157 96.8429 322.122 96 320 96H288C285.878 96 283.843 96.8429 282.343 98.3431C280.843 99.8434 280 101.878 280 104V120H264C261.878 120 259.843 120.843 258.343 122.343C256.843 123.843 256 125.878 256 128V160C256 162.122 256.843 164.157 258.343 165.657C259.843 167.157 261.878 168 264 168ZM272 136H288C290.122 136 292.157 135.157 293.657 133.657C295.157 132.157 296 130.122 296 128V112H312V128C312 130.122 312.843 132.157 314.343 133.657C315.843 135.157 317.878 136 320 136H336V152H320C317.878 152 315.843 152.843 314.343 154.343C312.843 155.843 312 157.878 312 160V176H296V160C296 157.878 295.157 155.843 293.657 154.343C292.157 152.843 290.122 152 288 152H272V136Z" fill="#004FAC"/>
<path d="M304 224C319.823 224 335.29 219.308 348.446 210.518C361.602 201.727 371.855 189.233 377.91 174.615C383.965 159.997 385.55 143.911 382.463 128.393C379.376 112.874 371.757 98.6197 360.569 87.4315C349.38 76.2433 335.126 68.624 319.607 65.5372C304.089 62.4504 288.003 64.0347 273.385 70.0897C258.767 76.1447 246.273 86.3985 237.482 99.5544C228.692 112.71 224 128.178 224 144C224.024 165.21 232.46 185.544 247.458 200.542C262.456 215.54 282.79 223.976 304 224V224ZM304 80C316.658 80 329.032 83.7536 339.556 90.786C350.081 97.8184 358.284 107.814 363.128 119.508C367.972 131.203 369.24 144.071 366.77 156.486C364.301 168.901 358.205 180.304 349.255 189.255C340.304 198.205 328.901 204.301 316.486 206.77C304.071 209.24 291.203 207.972 279.508 203.128C267.814 198.284 257.818 190.081 250.786 179.557C243.754 169.032 240 156.658 240 144C240.019 127.032 246.768 110.764 258.766 98.7662C270.764 86.768 287.032 80.0191 304 80Z" fill="#004FAC"/>
<path d="M304 248C324.569 248 344.677 241.901 361.779 230.473C378.882 219.045 392.212 202.803 400.083 183.799C407.955 164.796 410.015 143.885 406.002 123.711C401.989 103.537 392.084 85.0056 377.539 70.4609C362.994 55.9163 344.463 46.0112 324.289 41.9984C304.115 37.9855 283.204 40.0451 264.201 47.9166C245.197 55.7881 228.955 69.118 217.527 86.2207C206.099 103.323 200 123.431 200 144C200.031 171.573 210.998 198.008 230.495 217.505C249.992 237.002 276.427 247.969 304 248V248ZM304 56C321.405 56 338.419 61.1612 352.89 70.8307C367.362 80.5003 378.641 94.244 385.301 110.324C391.962 126.404 393.705 144.098 390.309 161.168C386.914 178.238 378.532 193.918 366.225 206.225C353.918 218.532 338.238 226.914 321.168 230.309C304.098 233.705 286.404 231.962 270.324 225.301C254.244 218.641 240.5 207.362 230.831 192.89C221.161 178.419 216 161.405 216 144C216.026 120.669 225.306 98.3013 241.804 81.8039C258.301 65.3064 280.669 56.0265 304 56V56Z" fill="#004FAC"/>
</svg>
