<?xml version="1.0" encoding="UTF-8" standalone="no"?> <svg width="512" height="512" viewBox="0 0 512 512" fill="none" xmlns="http://www.w3.org/2000/svg">
<path d="M240 168H216V136H240V112H272V136H296V168H272V192H240V168Z" fill="#57A4FF"/>
<path d="M152 256V304H360V256H152ZM328 464V344H184V464H152V488H360V464H328Z" fill="#57A4FF"/>
<path d="M296 136V168H272V192H240V168H216V136H240V112H272V136H296Z" fill="#57A4FF"/>
<path d="M360 464H152V488H360V464Z" fill="#57A4FF"/>
<path d="M328 344H184V464H328V344Z" fill="#57A4FF"/>
<path d="M96 344H40V400H96V344Z" fill="#57A4FF"/>
<path d="M472 344H416V400H472V344Z" fill="#57A4FF"/>
<path d="M96 344H40V400H96V344Z" fill="#57A4FF"/>
<path d="M472 344H416V400H472V344Z" fill="#57A4FF"/>
<path d="M296 136V168H272V192H240V168H216V136H240V112H272V136H296Z" fill="#57A4FF"/>
<path d="M120 280H24V312H120V280Z" fill="#57A4FF"/>
<path d="M488 280H392V312H488V280Z" fill="#57A4FF"/>
<path d="M360 256H152V304H360V256Z" fill="#57A4FF"/>
<path d="M336 24H176V48H336V24Z" fill="#57A4FF"/>
<path d="M496 480H480V320H488C490.122 320 492.157 319.157 493.657 317.657C495.157 316.157 496 314.122 496 312V280C496 277.878 495.157 275.843 493.657 274.343C492.157 272.843 490.122 272 488 272H400V48C400 45.8783 399.157 43.8434 397.657 42.3431C396.157 40.8429 394.122 40 392 40H344V24C344 21.8783 343.157 19.8434 341.657 18.3431C340.157 16.8429 338.122 16 336 16H176C173.878 16 171.843 16.8429 170.343 18.3431C168.843 19.8434 168 21.8783 168 24V40H120C117.878 40 115.843 40.8429 114.343 42.3431C112.843 43.8434 112 45.8783 112 48V272H24C21.8783 272 19.8434 272.843 18.3431 274.343C16.8429 275.843 16 277.878 16 280V312C16 314.122 16.8429 316.157 18.3431 317.657C19.8434 319.157 21.8783 320 24 320H32V480H16C13.8783 480 11.8434 480.843 10.3431 482.343C8.84285 483.843 8 485.878 8 488C8 490.122 8.84285 492.157 10.3431 493.657C11.8434 495.157 13.8783 496 16 496H496C498.122 496 500.157 495.157 501.657 493.657C503.157 492.157 504 490.122 504 488C504 485.878 503.157 483.843 501.657 482.343C500.157 480.843 498.122 480 496 480ZM112 480H48V408H96C98.1217 408 100.157 407.157 101.657 405.657C103.157 404.157 104 402.122 104 400V344C104 341.878 103.157 339.843 101.657 338.343C100.157 336.843 98.1217 336 96 336H48V320H112V480ZM48 392V352H88V392H48ZM112 304H32V288H112V304ZM184 32H328V40H184V32ZM352 480H160V472H352V480ZM192 456V352H248V456H192ZM264 456V352H320V456H264ZM384 480H368V464C368 461.878 367.157 459.843 365.657 458.343C364.157 456.843 362.122 456 360 456H336V344C336 341.878 335.157 339.843 333.657 338.343C332.157 336.843 330.122 336 328 336H184C181.878 336 179.843 336.843 178.343 338.343C176.843 339.843 176 341.878 176 344V456H152C149.878 456 147.843 456.843 146.343 458.343C144.843 459.843 144 461.878 144 464V480H128V56H384V480ZM464 392H424V352H464V392ZM464 336H416C413.878 336 411.843 336.843 410.343 338.343C408.843 339.843 408 341.878 408 344V400C408 402.122 408.843 404.157 410.343 405.657C411.843 407.157 413.878 408 416 408H464V480H400V320H464V336ZM400 304V288H480V304H400Z" fill="#004FAC"/>
<path d="M232 176V192C232 194.122 232.843 196.157 234.343 197.657C235.843 199.157 237.878 200 240 200H272C274.122 200 276.157 199.157 277.657 197.657C279.157 196.157 280 194.122 280 192V176H296C298.122 176 300.157 175.157 301.657 173.657C303.157 172.157 304 170.122 304 168V136C304 133.878 303.157 131.843 301.657 130.343C300.157 128.843 298.122 128 296 128H280V112C280 109.878 279.157 107.843 277.657 106.343C276.157 104.843 274.122 104 272 104H240C237.878 104 235.843 104.843 234.343 106.343C232.843 107.843 232 109.878 232 112V128H216C213.878 128 211.843 128.843 210.343 130.343C208.843 131.843 208 133.878 208 136V168C208 170.122 208.843 172.157 210.343 173.657C211.843 175.157 213.878 176 216 176H232ZM224 144H240C242.122 144 244.157 143.157 245.657 141.657C247.157 140.157 248 138.122 248 136V120H264V136C264 138.122 264.843 140.157 266.343 141.657C267.843 143.157 269.878 144 272 144H288V160H272C269.878 160 267.843 160.843 266.343 162.343C264.843 163.843 264 165.878 264 168V184H248V168C248 165.878 247.157 163.843 245.657 162.343C244.157 160.843 242.122 160 240 160H224V144Z" fill="#004FAC"/>
<path d="M256 232C271.823 232 287.29 227.308 300.446 218.518C313.602 209.727 323.855 197.233 329.91 182.615C335.965 167.997 337.55 151.911 334.463 136.393C331.376 120.874 323.757 106.62 312.569 95.4315C301.38 84.2433 287.126 76.624 271.607 73.5372C256.089 70.4504 240.003 72.0347 225.385 78.0897C210.767 84.1447 198.273 94.3985 189.482 107.554C180.692 120.71 176 136.178 176 152C176.024 173.21 184.46 193.544 199.458 208.542C214.456 223.54 234.79 231.976 256 232V232ZM256 88C268.658 88 281.032 91.7536 291.556 98.786C302.081 105.818 310.284 115.814 315.128 127.508C319.972 139.203 321.24 152.071 318.77 164.486C316.301 176.901 310.205 188.304 301.255 197.255C292.304 206.205 280.901 212.301 268.486 214.77C256.071 217.24 243.203 215.972 231.508 211.128C219.814 206.284 209.818 198.081 202.786 187.557C195.754 177.032 192 164.658 192 152C192.019 135.032 198.768 118.764 210.766 106.766C222.764 94.768 239.032 88.0191 256 88V88Z" fill="#004FAC"/>
<path d="M152 312H360C362.122 312 364.157 311.157 365.657 309.657C367.157 308.157 368 306.122 368 304V256C368 253.878 367.157 251.843 365.657 250.343C364.157 248.843 362.122 248 360 248H152C149.878 248 147.843 248.843 146.343 250.343C144.843 251.843 144 253.878 144 256V304C144 306.122 144.843 308.157 146.343 309.657C147.843 311.157 149.878 312 152 312ZM248 296H208V264H248V296ZM264 264H304V296H264V264ZM352 296H320V264H352V296ZM160 264H192V296H160V264Z" fill="#004FAC"/>
</svg>
