<?xml version="1.0" encoding="UTF-8" standalone="no"?> <svg xmlns="http://www.w3.org/2000/svg" viewBox="0 0 64 64"><title>bag</title><g id="bag"><path d="M60,15H44a12,12,0,0,0-24,0H4a1,1,0,0,0-1,1V60a1,1,0,0,0,1,1H60a1,1,0,0,0,1-1V16A1,1,0,0,0,60,15ZM32,6a9,9,0,0,1,9,9H23A9,9,0,0,1,32,6ZM58,57a1,1,0,0,1-1,1H7a1,1,0,0,1-1-1V19a1,1,0,0,1,1-1h.9a1,1,0,0,0-.92,1.39l5.07,12a1,1,0,0,0,.92.61H24v2a1,1,0,0,0,1,1h3a1,1,0,0,1,1,1v3a1,1,0,0,0,1,1h4a1,1,0,0,0,1-1V36a1,1,0,0,1,1-1h3a1,1,0,0,0,1-1V32H51.11a1,1,0,0,0,.92-.61l5.07-12A1,1,0,0,0,56.18,18H57a1,1,0,0,1,1,1Z" style="fill:#78b9eb"/><path d="M60,14H44.949a12.987,12.987,0,0,0-25.9,0H4a2,2,0,0,0-2,2V60a2,2,0,0,0,2,2H60a2,2,0,0,0,2-2V16A2,2,0,0,0,60,14ZM32,4A11.01,11.01,0,0,1,42.949,14h-1a9.914,9.914,0,0,0-.495-2.277,1,1,0,1,0-1.889.654A7.959,7.959,0,0,1,39.917,14H24.083a7.906,7.906,0,0,1,.355-1.616l0,0a7.932,7.932,0,0,1,1.07-2.061,1.013,1.013,0,0,0-.22-1.4,1.034,1.034,0,0,0-1.4.229,10,10,0,0,0-1.34,2.571v0A9.96,9.96,0,0,0,22.055,14h-1A11.01,11.01,0,0,1,32,4ZM60,60H4V16H60Z" style="fill:#1a6fb0"/><path d="M30.27,7.189a7.971,7.971,0,0,1,5.64.831,1.016,1.016,0,0,0,1.36-.39,1,1,0,0,0-.39-1.36,10.057,10.057,0,0,0-2.67-1.03h-.04a10.052,10.052,0,0,0-4.33-.011,1.008,1.008,0,0,0-.76,1.2A1.029,1.029,0,0,0,30.27,7.189Z" style="fill:#1a6fb0"/><path d="M6.232,17.9a1.993,1.993,0,0,0-.173,1.884l5.073,12.008A2.006,2.006,0,0,0,12.97,33H23v1a2,2,0,0,0,2,2h3v3a2,2,0,0,0,2,2h4a2,2,0,0,0,2-2V36h3a2,2,0,0,0,2-2V33H51.11a2.007,2.007,0,0,0,1.841-1.221l5.07-12A2,2,0,0,0,56.18,17H7.9A2,2,0,0,0,6.232,17.9ZM39,34H36a2,2,0,0,0-2,2v3H30V36a2,2,0,0,0-2-2H25V30h3a2,2,0,0,0,2-2V25h4v3a2,2,0,0,0,2,2h3Zm12.11-3H41V30a2,2,0,0,0-2-2H36V25a2,2,0,0,0-2-2H30a2,2,0,0,0-2,2v3H25a2,2,0,0,0-2,2v1H12.971L7.9,19H56.179Z" style="fill:#1a6fb0"/><circle cx="6" cy="51.87" r="1" style="fill:#1a6fb0"/><path d="M6,48.819a1,1,0,0,0,1-1V37.689a1,1,0,0,0-2,0v10.13A1,1,0,0,0,6,48.819Z" style="fill:#1a6fb0"/><circle cx="6" cy="31.62" r="1" style="fill:#1a6fb0"/><circle cx="27" cy="7.62" r="1" style="fill:#1a6fb0"/><circle cx="39" cy="9.62" r="1" style="fill:#1a6fb0"/><circle cx="58" cy="34.24" r="1" style="fill:#1a6fb0"/><path d="M57.03,57H46.88a1,1,0,1,0,0,2H57.05a1,1,0,0,0-.02-2Z" style="fill:#1a6fb0"/><circle cx="58" cy="54.49" r="1" style="fill:#1a6fb0"/><path d="M58,37.29a1,1,0,0,0-1,1V48.42a1,1,0,0,0,2,0V38.29A1,1,0,0,0,58,37.29Z" style="fill:#1a6fb0"/><circle cx="40.8" cy="58" r="1" style="fill:#1a6fb0"/><circle cx="20.55" cy="58" r="1" style="fill:#1a6fb0"/><path d="M36.75,57H26.62a1,1,0,0,0,0,2H36.75a1,1,0,0,0,0-2Z" style="fill:#1a6fb0"/><path d="M16.5,57H7a1.033,1.033,0,0,0-1.4.22.991.991,0,0,0,.23,1.4A2.025,2.025,0,0,0,7,59h9.5a1,1,0,0,0,0-2Z" style="fill:#1a6fb0"/></g></svg>